# xmcd
#
# Track frame offsets: 
#        150
#        20567
#        39592
#        55615
#        74914
#        94560
#        113127
#        132911
#        138208
#        156463
#        174808
#        193359
#
# Disc length: 2845 seconds
#
# Revision: 0
# Processed by: cddbd v1.5.2PL0 Copyright (c) Steve Scherf et al.
# Submitted via: ExactAudioCopy v0.99pb5
#
DISCID=a80b1b0c
DTITLE=La Oreja de Van Gogh - Nuestra Casa a la Izquierda del Tempo
DYEAR=1900
DGENRE=Pop
TTITLE0=Paris
TTITLE1=Cuéntame al Oido
TTITLE2=El Último Vals
TTITLE3=La Playa
TTITLE4=Rosas
TTITLE5=20 de Enero
TTITLE6=Jueves
TTITLE7=Loa Loa
TTITLE8=Muñeca de Trapo
TTITLE9=Soledad
TTITLE10=Deseos de Cosas Imposibles
TTITLE11=Puedes contar conmigo
EXTD=
EXTT0=
EXTT1=
EXTT2=
EXTT3=
EXTT4=
EXTT5=
EXTT6=
EXTT7=
EXTT8=
EXTT9=
EXTT10=
EXTT11=
PLAYORDER=
